<?xml version="1.0" encoding="UTF-8" standalone="no"?>
<!DOCTYPE svg PUBLIC "-//W3C//DTD SVG 1.1//EN" "http://www.w3.org/Graphics/SVG/1.1/DTD/svg11.dtd">
<svg width="100%" height="100%" viewBox="0 0 140 29" version="1.1" xmlns="http://www.w3.org/2000/svg" xmlns:xlink="http://www.w3.org/1999/xlink" xml:space="preserve" xmlns:serif="http://www.serif.com/" style="fill-rule:evenodd;clip-rule:evenodd;stroke-linejoin:round;stroke-miterlimit:1.41421;">
    <g transform="matrix(1,0,0,1,-346.736,-230.344)">
        <path d="M357.999,230.344C349.702,230.344 346.736,234.111 346.736,244.652C346.736,255.193 349.702,258.961 357.999,258.961C361.806,258.961 364.051,258.68 366.495,257.919L366.055,254.151C363.69,254.472 361.526,254.552 357.999,254.552C353.429,254.552 352.027,252.228 352.027,244.652C352.027,237.077 353.429,234.753 357.999,234.753C361.325,234.753 362.968,234.833 365.453,235.033L365.934,231.226C363.53,230.584 361.686,230.344 357.999,230.344Z" style="fill:white;fill-rule:nonzero;"/>
    </g>
    <g transform="matrix(1,0,0,1,-346.736,-230.344)">
        <path d="M387.938,258.48L393.069,258.48L384.772,232.147C384.531,231.306 383.81,230.825 382.968,230.825L378.079,230.825C377.237,230.825 376.515,231.306 376.275,232.147L367.978,258.48L373.109,258.48L375.393,250.664L385.654,250.664L387.938,258.48ZM376.596,246.536L379.361,236.997L380.002,234.632L381.085,234.632C381.205,235.394 381.485,236.236 381.686,236.997L384.451,246.536L376.596,246.536Z" style="fill:white;fill-rule:nonzero;"/>
    </g>
    <g transform="matrix(1,0,0,1,-346.736,-230.344)">
        <path d="M404.692,230.344C398.079,230.344 395.193,231.426 395.193,237.759C395.193,241.887 396.676,244.452 400.764,245.775L406.335,247.538C408.339,248.179 409.261,248.66 409.261,251.185C409.261,254.031 408.259,254.552 404.652,254.552C402.728,254.552 401.125,254.512 395.874,254.392L395.553,258.079C399.561,258.881 402.848,258.961 404.531,258.961C411.626,258.961 414.351,257.518 414.351,251.226C414.351,247.177 413.028,244.572 408.66,243.169L403.329,241.526C401.165,240.845 400.243,240.284 400.243,237.839C400.243,234.873 401.485,234.672 404.852,234.672C407.577,234.672 410.784,234.753 413.068,234.833L413.389,231.266C410.423,230.504 407.337,230.344 404.692,230.344Z" style="fill:white;fill-rule:nonzero;"/>
    </g>
    <g transform="matrix(1,0,0,1,-346.736,-230.344)">
        <path d="M440.503,230.825L435.333,230.825L429.762,251.586C429.481,252.588 429.201,253.67 429,254.672L427.998,254.672L427.277,251.586L421.626,230.825L416.455,230.825L424.311,257.077C424.511,257.919 425.233,258.48 426.115,258.48L430.844,258.48C431.726,258.48 432.447,257.919 432.688,257.077L440.503,230.825Z" style="fill:white;fill-rule:nonzero;"/>
    </g>
    <g transform="matrix(1,0,0,1,-346.736,-230.344)">
        <path d="M461.052,258.48L466.182,258.48L457.885,232.147C457.645,231.306 456.923,230.825 456.082,230.825L451.192,230.825C450.35,230.825 449.629,231.306 449.388,232.147L441.092,258.48L446.222,258.48L448.507,250.664L458.767,250.664L461.052,258.48ZM449.709,246.536L452.475,236.997L453.116,234.632L454.198,234.632C454.318,235.394 454.599,236.236 454.799,236.997L457.565,246.536L449.709,246.536Z" style="fill:white;fill-rule:nonzero;"/>
    </g>
    <g transform="matrix(1,0,0,1,-346.736,-230.344)">
        <path d="M474.398,230.825L469.388,230.825L469.388,252.829C469.388,256.155 470.992,258.56 475.601,258.56C479.328,258.56 483.096,258.52 486.583,258.199L486.382,254.312L476.763,254.312C475,254.312 474.398,253.71 474.398,252.027L474.398,230.825Z" style="fill:white;fill-rule:nonzero;"/>
    </g>
</svg>
